# xmcd
#
# Track frame offsets: 
#        300
#        12759
#        24640
#        35704
#        48866
#        59799
#        70200
#        83642
#        97336
#        109726
#        123176
#        140669
#        152725
#        163720
#        177908
#        191487
#        204024
#        220829
#        238178
#        249911
#        269087
#        280304
#
# Disc length: 3924 seconds
#
# Revision: 2
# Processed by: cddbd v1.5.2PL0 Copyright (c) Steve Scherf et al.
# Submitted via: ExactAudioCopy v0.95a5
#
DISCID=440f5016
DTITLE=Various Artist - Classic Blues from Smithsonian Folkways Volume 2
DYEAR=2003
DGENRE=Blues
TTITLE0=Brownie McGhee and Sonny Terry - Dark Road
TTITLE1=Warner Williams - Step it Up and Go
TTITLE2=Lead Belly - It Was Early One Morning
TTITLE3=Nora Lee King and Mary Lou Williams - Blue - Until My Baby Com
TTITLE3=es Home
TTITLE4=Pink Anderson - That's No Way to Do
TTITLE5=Little Brother Montgomery - Farro Street Jive
TTITLE6=Son House - I Ain't Gonna Cry No More (Depot Blues
TTITLE7=Roscoe Holcomb - Graveyard Blues
TTITLE8=Roosevelt Sykes - 44 Blues
TTITLE9=Honeyboy Edwards - Big Fat Mama
TTITLE10=Lucinda Williams - Make Me a Pallet on Your Floor
TTITLE11=Barrelhouse Buck - Lieutenant Blues
TTITLE12=Sonny Terry and Friends - The Woman Is Killing Me
TTITLE13=Edith North Johnson and Henry Brown - Little Drops of Water
TTITLE14=Big Bill Broonzy - When Things Go Wrong (It Hurts Me Too
TTITLE15=Cat-Iron - Poor Boy a Long, Long Way From Home
TTITLE16=Shortstuff Macon - My Jack Don't Drink Water No More
TTITLE17=Barbara Dane - Way Behind the Sun
TTITLE18=Lightnin' Hopkins - Tell Me, Baby
TTITLE19=Memphis Slim - Just a Dream
TTITLE20=Josh White - Jelly Jelly
TTITLE21=The Chambers Brothers - Down in The Alley
EXTD=YEAR: 2003
EXTT0=
EXTT1=
EXTT2=
EXTT3=
EXTT4=
EXTT5=
EXTT6=
EXTT7=
EXTT8=
EXTT9=
EXTT10=
EXTT11=
EXTT12=
EXTT13=
EXTT14=
EXTT15=
EXTT16=
EXTT17=
EXTT18=
EXTT19=
EXTT20=
EXTT21=
PLAYORDER=
